# xmcd
#
# Track frame offsets: 
#        150
#        16697
#        32187
#        54822
#        72530
#        99222
#        118925
#        140025
#        160352
#        173787
#        193045
#
# Disc length: 2821 seconds
#
# Revision: 2
# Processed by: cddbd v1.5.2PL0 Copyright (c) Steve Scherf et al.
# Submitted via: ExactAudioCopy v0.99pb5
#
DISCID=940b030b
DTITLE=Bonnie Bramlett - I'm Still The Same
DYEAR=2002
DGENRE=Blues
TTITLE0=Hurt
TTITLE1=What If
TTITLE2=No Man's Land
TTITLE3=Made A Believer Out Of Me
TTITLE4=Superstar
TTITLE5=Give It Time
TTITLE6=Closer To You
TTITLE7=You Belong To Me
TTITLE8=Sure Sign Of Something
TTITLE9=Cry Me A River
TTITLE10=I'm Still The Same
EXTD=
EXTT0=
EXTT1=
EXTT2=
EXTT3=
EXTT4=
EXTT5=
EXTT6=
EXTT7=
EXTT8=
EXTT9=
EXTT10=
PLAYORDER=
